<?xml version="1.0" encoding="utf-8"?>
<!-- Svg Vector Icons : http://www.onlinewebfonts.com/icon -->
<!DOCTYPE svg PUBLIC "-//W3C//DTD SVG 1.1//EN" "http://www.w3.org/Graphics/SVG/1.1/DTD/svg11.dtd">
<svg version="1.1" xmlns="http://www.w3.org/2000/svg" xmlns:xlink="http://www.w3.org/1999/xlink" x="0px" y="0px" viewBox="0 0 1000 1000" enable-background="new 0 0 1000 1000" xml:space="preserve">
<metadata> Svg Vector Icons : http://www.onlinewebfonts.com/icon </metadata>
<g><path d="M977.8,13.8c-7.6-4.7-17.1-5.1-25.1-1.2l-298,149l-297.9-149c-7.3-3.6-15.8-3.6-23.1,0L24.3,167.4c-8.8,4.4-14.3,13.3-14.3,23.1v773.7c0,8.9,4.6,17.2,12.2,21.9c4.1,2.6,8.8,3.9,13.5,3.9c3.9,0,7.9-0.9,11.5-2.7l298-149l297.9,149c7.3,3.6,15.9,3.6,23.1,0l309.5-154.7c8.8-4.4,14.3-13.3,14.3-23.1V35.8C990,26.8,985.4,18.5,977.8,13.8L977.8,13.8z M319.4,793.6l-257.9,129V206.4l257.9-129V793.6z M371,77.5l257.9,129v716.1L371,793.6V77.5z M938.4,793.6l-257.9,129V206.4l257.9-129V793.6z"/></g>
</svg>